<svg width="192" height="40" viewBox="0 0 192 40" fill="none" xmlns="http://www.w3.org/2000/svg">
<path fill-rule="evenodd" clip-rule="evenodd" d="M176.5 39.9999C185.06 39.9999 192 33.0603 192 24.4999C192 15.9395 185.06 8.99993 176.5 8.99992L102.01 8.99992L96.7558 0.910602C95.9672 -0.303517 94.1899 -0.303521 93.4013 0.910598L88.1471 8.99992L15.5 8.99991C6.93959 8.99991 2.10343e-06 15.9395 1.35505e-06 24.4999C6.06677e-07 33.0603 6.93959 39.9999 15.5 39.9999L176.5 39.9999Z" fill="#FAE100"/>
<path d="M35.5781 18C36.9483 18 38.2155 18.2667 39.3799 18.8C40.5442 19.3333 41.4647 20.0585 42.1413 20.9756C42.8179 21.8927 43.1562 22.893 43.1562 23.9766C43.1562 25.0602 42.8179 26.0619 42.1413 26.9819C41.4647 27.9018 40.5456 28.6284 39.3841 29.1617C38.2226 29.695 36.9539 29.9617 35.5781 29.9617C35.144 29.9617 34.6957 29.9307 34.2333 29.8686C32.226 31.2626 31.1576 31.968 31.0279 31.9849C30.9658 32.0075 30.9066 32.0047 30.8503 31.9765C30.8277 31.9596 30.8108 31.937 30.7995 31.9088C30.7882 31.8805 30.7826 31.8552 30.7826 31.8326V31.7987C30.8164 31.5786 31.073 30.6615 31.5522 29.0474C30.464 28.5057 29.5999 27.7875 28.96 26.893C28.32 25.9985 28 25.0263 28 23.9766C28 22.893 28.3383 21.8927 29.0149 20.9756C29.6915 20.0585 30.612 19.3333 31.7764 18.8C32.9407 18.2667 34.208 18 35.5781 18Z" fill="#3C1D1E"/>
<path d="M57.2645 27.105C57.2645 27.735 57.1245 28.275 56.8445 28.725C56.5645 29.175 56.1645 29.525 55.6445 29.775C55.1245 30.025 54.5145 30.15 53.8145 30.15C53.4545 30.15 53.1095 30.13 52.7795 30.09C52.4595 30.05 52.1595 29.995 51.8795 29.925C51.6095 29.855 51.3595 29.765 51.1295 29.655V28.365C51.4895 28.535 51.9095 28.68 52.3895 28.8C52.8695 28.92 53.3495 28.98 53.8295 28.98C54.2895 28.98 54.6745 28.905 54.9845 28.755C55.3045 28.605 55.5445 28.4 55.7045 28.14C55.8645 27.87 55.9445 27.565 55.9445 27.225C55.9445 26.875 55.8795 26.58 55.7495 26.34C55.6195 26.1 55.3945 25.88 55.0745 25.68C54.7545 25.48 54.3145 25.265 53.7545 25.035C53.3445 24.865 52.9795 24.685 52.6595 24.495C52.3495 24.305 52.0895 24.09 51.8795 23.85C51.6695 23.6 51.5095 23.32 51.3995 23.01C51.2995 22.69 51.2495 22.32 51.2495 21.9C51.2395 21.34 51.3695 20.855 51.6395 20.445C51.9095 20.025 52.2845 19.705 52.7645 19.485C53.2445 19.255 53.7945 19.14 54.4145 19.14C54.9445 19.14 55.4295 19.195 55.8695 19.305C56.3195 19.415 56.7195 19.55 57.0695 19.71L56.6645 20.865C56.3145 20.705 55.9495 20.575 55.5695 20.475C55.1895 20.375 54.7995 20.325 54.3995 20.325C54.0095 20.325 53.6745 20.39 53.3945 20.52C53.1245 20.65 52.9195 20.835 52.7795 21.075C52.6495 21.305 52.5845 21.575 52.5845 21.885C52.5845 22.255 52.6495 22.56 52.7795 22.8C52.9095 23.03 53.1245 23.24 53.4245 23.43C53.7345 23.62 54.1495 23.825 54.6695 24.045C55.2395 24.285 55.7145 24.545 56.0945 24.825C56.4845 25.095 56.7745 25.415 56.9645 25.785C57.1645 26.145 57.2645 26.585 57.2645 27.105ZM61.5098 29.07C61.6898 29.07 61.8648 29.055 62.0348 29.025C62.2148 28.985 62.3698 28.945 62.4998 28.905V29.91C62.3498 29.98 62.1598 30.035 61.9298 30.075C61.6998 30.125 61.4648 30.15 61.2248 30.15C60.8348 30.15 60.4848 30.075 60.1748 29.925C59.8648 29.775 59.6198 29.53 59.4398 29.19C59.2598 28.84 59.1698 28.37 59.1698 27.78V22.98H58.1648V22.335L59.1998 21.885L59.6498 20.115H60.4448V21.96H62.4098V22.98H60.4448V27.705C60.4448 28.165 60.5348 28.51 60.7148 28.74C60.9048 28.96 61.1698 29.07 61.5098 29.07ZM66.7031 21.81C67.5931 21.81 68.2431 22.035 68.6531 22.485C69.0731 22.935 69.2831 23.62 69.2831 24.54V30H68.3381L68.1131 28.875H68.0681C67.8681 29.155 67.6581 29.395 67.4381 29.595C67.2181 29.785 66.9631 29.925 66.6731 30.015C66.3931 30.105 66.0631 30.15 65.6831 30.15C65.2231 30.15 64.8231 30.055 64.4831 29.865C64.1431 29.675 63.8781 29.4 63.6881 29.04C63.5081 28.68 63.4181 28.255 63.4181 27.765C63.4181 26.965 63.6981 26.345 64.2581 25.905C64.8281 25.465 65.6831 25.225 66.8231 25.185L68.0231 25.14V24.645C68.0231 23.995 67.8981 23.535 67.6481 23.265C67.4081 22.995 67.0531 22.86 66.5831 22.86C66.2331 22.86 65.8881 22.915 65.5481 23.025C65.2181 23.135 64.8981 23.27 64.5881 23.43L64.1831 22.47C64.5231 22.27 64.9081 22.11 65.3381 21.99C65.7781 21.87 66.2331 21.81 66.7031 21.81ZM67.0031 26.1C66.1731 26.13 65.5881 26.285 65.2481 26.565C64.9081 26.845 64.7381 27.245 64.7381 27.765C64.7381 28.225 64.8531 28.565 65.0831 28.785C65.3231 29.005 65.6381 29.115 66.0281 29.115C66.6081 29.115 67.0831 28.92 67.4531 28.53C67.8331 28.14 68.0231 27.565 68.0231 26.805V26.055L67.0031 26.1ZM74.9503 21.81C75.0903 21.81 75.2353 21.82 75.3853 21.84C75.5453 21.85 75.6853 21.87 75.8053 21.9L75.6403 23.13C75.5203 23.1 75.3903 23.075 75.2503 23.055C75.1203 23.035 74.9903 23.025 74.8603 23.025C74.5903 23.025 74.3303 23.09 74.0803 23.22C73.8403 23.35 73.6253 23.54 73.4353 23.79C73.2553 24.03 73.1103 24.315 73.0003 24.645C72.9003 24.975 72.8503 25.34 72.8503 25.74V30H71.5753V21.96H72.5953L72.7603 23.385H72.8203C72.9703 23.085 73.1503 22.815 73.3603 22.575C73.5703 22.335 73.8103 22.15 74.0803 22.02C74.3503 21.88 74.6403 21.81 74.9503 21.81ZM79.586 29.07C79.766 29.07 79.941 29.055 80.111 29.025C80.291 28.985 80.446 28.945 80.576 28.905V29.91C80.426 29.98 80.236 30.035 80.006 30.075C79.776 30.125 79.541 30.15 79.301 30.15C78.911 30.15 78.561 30.075 78.251 29.925C77.941 29.775 77.696 29.53 77.516 29.19C77.336 28.84 77.246 28.37 77.246 27.78V22.98H76.241V22.335L77.276 21.885L77.726 20.115H78.521V21.96H80.486V22.98H78.521V27.705C78.521 28.165 78.611 28.51 78.791 28.74C78.981 28.96 79.246 29.07 79.586 29.07ZM90.2302 25.335C90.1802 25.155 90.1302 24.975 90.0802 24.795C90.0402 24.605 90.0002 24.425 89.9602 24.255C89.9302 24.075 89.8952 23.91 89.8552 23.76C89.8252 23.6 89.8002 23.46 89.7802 23.34H89.7352C89.7152 23.46 89.6852 23.6 89.6452 23.76C89.6152 23.91 89.5802 24.075 89.5402 24.255C89.5102 24.435 89.4752 24.615 89.4352 24.795C89.3952 24.975 89.3452 25.16 89.2852 25.35L88.0102 29.985H86.5552L84.5152 21.945H85.8352L86.8252 26.13C86.8952 26.42 86.9602 26.71 87.0202 27C87.0902 27.29 87.1502 27.575 87.2002 27.855C87.2502 28.125 87.2902 28.37 87.3202 28.59H87.3652C87.3952 28.45 87.4252 28.29 87.4552 28.11C87.4952 27.92 87.5352 27.725 87.5752 27.525C87.6152 27.315 87.6602 27.11 87.7102 26.91C87.7602 26.7 87.8102 26.5 87.8602 26.31L89.0752 21.945H90.4852L91.6552 26.31C91.7152 26.53 91.7752 26.77 91.8352 27.03C91.9052 27.28 91.9652 27.54 92.0152 27.81C92.0752 28.08 92.1202 28.34 92.1502 28.59H92.1952C92.2152 28.43 92.2452 28.24 92.2852 28.02C92.3352 27.79 92.3902 27.54 92.4502 27.27C92.5102 27 92.5702 26.725 92.6302 26.445L93.7102 21.945H95.0002L92.9452 29.985H91.4452L90.2302 25.335ZM97.6061 21.96V30H96.3311V21.96H97.6061ZM96.9911 18.93C97.2011 18.93 97.3761 19 97.5161 19.14C97.6561 19.28 97.7261 19.495 97.7261 19.785C97.7261 20.065 97.6561 20.275 97.5161 20.415C97.3761 20.555 97.2011 20.625 96.9911 20.625C96.7711 20.625 96.5861 20.555 96.4361 20.415C96.2961 20.275 96.2261 20.065 96.2261 19.785C96.2261 19.495 96.2961 19.28 96.4361 19.14C96.5761 19 96.7611 18.93 96.9911 18.93ZM102.364 29.07C102.544 29.07 102.719 29.055 102.889 29.025C103.069 28.985 103.224 28.945 103.354 28.905V29.91C103.204 29.98 103.014 30.035 102.784 30.075C102.554 30.125 102.319 30.15 102.079 30.15C101.689 30.15 101.339 30.075 101.029 29.925C100.719 29.775 100.474 29.53 100.294 29.19C100.114 28.84 100.024 28.37 100.024 27.78V22.98H99.0193V22.335L100.054 21.885L100.504 20.115H101.299V21.96H103.264V22.98H101.299V27.705C101.299 28.165 101.389 28.51 101.569 28.74C101.759 28.96 102.024 29.07 102.364 29.07ZM106.088 21.9C106.088 22.1 106.078 22.3 106.058 22.5C106.048 22.7 106.033 22.885 106.013 23.055H106.103C106.243 22.785 106.428 22.56 106.658 22.38C106.888 22.19 107.143 22.05 107.423 21.96C107.713 21.86 108.013 21.81 108.323 21.81C108.903 21.81 109.383 21.915 109.763 22.125C110.143 22.335 110.428 22.65 110.618 23.07C110.808 23.49 110.903 24.03 110.903 24.69V30H109.628V24.825C109.628 24.165 109.508 23.68 109.268 23.37C109.028 23.06 108.643 22.905 108.113 22.905C107.613 22.905 107.213 23.015 106.913 23.235C106.623 23.455 106.413 23.785 106.283 24.225C106.153 24.655 106.088 25.19 106.088 25.83V30H104.813V18.6H106.088V21.9ZM123.877 30H122.362L119.137 24.945L118.162 25.89V30H116.842V19.29H118.162V24.6C118.372 24.34 118.597 24.055 118.837 23.745C119.087 23.425 119.352 23.09 119.632 22.74L122.227 19.29H123.727L120.067 23.985L123.877 30ZM127.772 21.81C128.662 21.81 129.312 22.035 129.722 22.485C130.142 22.935 130.352 23.62 130.352 24.54V30H129.407L129.182 28.875H129.137C128.937 29.155 128.727 29.395 128.507 29.595C128.287 29.785 128.032 29.925 127.742 30.015C127.462 30.105 127.132 30.15 126.752 30.15C126.292 30.15 125.892 30.055 125.552 29.865C125.212 29.675 124.947 29.4 124.757 29.04C124.577 28.68 124.487 28.255 124.487 27.765C124.487 26.965 124.767 26.345 125.327 25.905C125.897 25.465 126.752 25.225 127.892 25.185L129.092 25.14V24.645C129.092 23.995 128.967 23.535 128.717 23.265C128.477 22.995 128.122 22.86 127.652 22.86C127.302 22.86 126.957 22.915 126.617 23.025C126.287 23.135 125.967 23.27 125.657 23.43L125.252 22.47C125.592 22.27 125.977 22.11 126.407 21.99C126.847 21.87 127.302 21.81 127.772 21.81ZM128.072 26.1C127.242 26.13 126.657 26.285 126.317 26.565C125.977 26.845 125.807 27.245 125.807 27.765C125.807 28.225 125.922 28.565 126.152 28.785C126.392 29.005 126.707 29.115 127.097 29.115C127.677 29.115 128.152 28.92 128.522 28.53C128.902 28.14 129.092 27.565 129.092 26.805V26.055L128.072 26.1ZM133.905 24.45C133.905 24.65 133.895 24.88 133.875 25.14C133.865 25.4 133.855 25.64 133.845 25.86H133.905C133.965 25.77 134.04 25.66 134.13 25.53C134.23 25.39 134.33 25.255 134.43 25.125C134.53 24.985 134.62 24.865 134.7 24.765L136.98 21.96H138.45L135.66 25.275L138.63 30H137.145L134.79 26.175L133.905 27.03V30H132.645V18.6H133.905V24.45ZM142.67 21.81C143.56 21.81 144.21 22.035 144.62 22.485C145.04 22.935 145.25 23.62 145.25 24.54V30H144.305L144.08 28.875H144.035C143.835 29.155 143.625 29.395 143.405 29.595C143.185 29.785 142.93 29.925 142.64 30.015C142.36 30.105 142.03 30.15 141.65 30.15C141.19 30.15 140.79 30.055 140.45 29.865C140.11 29.675 139.845 29.4 139.655 29.04C139.475 28.68 139.385 28.255 139.385 27.765C139.385 26.965 139.665 26.345 140.225 25.905C140.795 25.465 141.65 25.225 142.79 25.185L143.99 25.14V24.645C143.99 23.995 143.865 23.535 143.615 23.265C143.375 22.995 143.02 22.86 142.55 22.86C142.2 22.86 141.855 22.915 141.515 23.025C141.185 23.135 140.865 23.27 140.555 23.43L140.15 22.47C140.49 22.27 140.875 22.11 141.305 21.99C141.745 21.87 142.2 21.81 142.67 21.81ZM142.97 26.1C142.14 26.13 141.555 26.285 141.215 26.565C140.875 26.845 140.705 27.245 140.705 27.765C140.705 28.225 140.82 28.565 141.05 28.785C141.29 29.005 141.605 29.115 141.995 29.115C142.575 29.115 143.05 28.92 143.42 28.53C143.8 28.14 143.99 27.565 143.99 26.805V26.055L142.97 26.1ZM153.827 25.965C153.827 26.625 153.752 27.21 153.602 27.72C153.452 28.23 153.232 28.67 152.942 29.04C152.652 29.4 152.297 29.675 151.877 29.865C151.457 30.055 150.982 30.15 150.452 30.15C149.952 30.15 149.497 30.055 149.087 29.865C148.677 29.675 148.327 29.4 148.037 29.04C147.747 28.68 147.522 28.245 147.362 27.735C147.202 27.215 147.122 26.625 147.122 25.965C147.122 25.075 147.252 24.325 147.512 23.715C147.782 23.095 148.167 22.625 148.667 22.305C149.167 21.975 149.772 21.81 150.482 21.81C151.152 21.81 151.737 21.97 152.237 22.29C152.737 22.61 153.127 23.08 153.407 23.7C153.687 24.31 153.827 25.065 153.827 25.965ZM148.442 25.965C148.442 26.615 148.512 27.175 148.652 27.645C148.802 28.105 149.027 28.46 149.327 28.71C149.627 28.95 150.012 29.07 150.482 29.07C150.942 29.07 151.322 28.95 151.622 28.71C151.922 28.46 152.142 28.105 152.282 27.645C152.432 27.175 152.507 26.615 152.507 25.965C152.507 25.305 152.432 24.75 152.282 24.3C152.142 23.84 151.922 23.495 151.622 23.265C151.322 23.025 150.937 22.905 150.467 22.905C149.757 22.905 149.242 23.17 148.922 23.7C148.602 24.23 148.442 24.985 148.442 25.965Z" fill="#271F17"/>
</svg>
