<svg width="9" height="19" viewBox="0 0 9 19" fill="none" xmlns="http://www.w3.org/2000/svg">
<path d="M6.44498 12.3962L7.24995 13.0158V12V0.5H7.74995V14.9986C7.74627 15.6402 7.55277 16.2664 7.19383 16.7982C6.83464 17.3304 6.32587 17.7442 5.73171 17.9876C5.13756 18.2309 4.48465 18.2928 3.85535 18.1654C3.22606 18.0381 2.64859 17.7272 2.1958 17.272C1.74301 16.8168 1.4352 16.2377 1.31119 15.6077C1.18719 14.9777 1.25255 14.3252 1.49904 13.7323C1.74553 13.1395 2.16209 12.6329 2.69617 12.2765C3.22999 11.9204 3.85731 11.7302 4.49905 11.73C5.2032 11.7326 5.88696 11.9667 6.44498 12.3962ZM2.97213 17.2865C3.42436 17.5887 3.95605 17.75 4.49995 17.75C5.22929 17.75 5.92877 17.4603 6.44449 16.9445C6.96022 16.4288 7.24995 15.7293 7.24995 15C7.24995 14.4561 7.08866 13.9244 6.78649 13.4722C6.48432 13.0199 6.05482 12.6675 5.55233 12.4593C5.04983 12.2512 4.4969 12.1967 3.96345 12.3028C3.43 12.4089 2.94 12.6709 2.5554 13.0555C2.17081 13.4401 1.9089 13.9301 1.80279 14.4635C1.69668 14.9969 1.75114 15.5499 1.95928 16.0524C2.16742 16.5549 2.5199 16.9844 2.97213 17.2865Z" fill="#A6EEF6" stroke="#A6EEF6"/>
</svg>
